<svg width="365" height="72" viewBox="0 0 365 72" fill="none" xmlns="http://www.w3.org/2000/svg">
<rect width="365" height="72" fill="#DADDE0"/>
<path d="M291.789 18.2404C292.569 18.2404 293.202 18.9377 293.202 19.7977L292.772 153.867C292.772 155.715 291.413 157.213 289.737 157.213H273.268C271.592 157.213 270.233 155.715 270.233 153.867L269.803 19.7977C269.803 18.9377 270.436 18.2404 271.217 18.2404H291.789ZM291.789 11.9299H271.216C267.28 11.9299 264.078 15.4595 264.078 19.7984L264.508 153.89C264.508 159.192 268.438 163.523 273.268 163.523H289.736C294.566 163.523 298.496 159.192 298.496 153.867L298.926 19.8203C298.926 15.4595 295.725 11.9299 291.789 11.9299Z" fill="#989DA4"/>
<path d="M289.736 96.6753H273.268C271.592 96.6753 270.233 95.1771 270.233 93.3295L269.803 21.5861C269.803 19.7385 271.162 18.2404 272.838 18.2404H290.167C291.843 18.2404 293.202 19.7385 293.202 21.5861L292.772 93.3302C292.771 95.1778 291.412 96.6753 289.736 96.6753Z" fill="#BABEC2"/>
<path d="M280.759 52.5621C280.172 52.5621 279.694 52.0353 279.694 51.3879V30.2569C279.694 29.6096 280.172 29.0827 280.759 29.0827H282.246C282.834 29.0827 283.311 29.6096 283.311 30.2569V51.3879C283.311 52.0353 282.834 52.5621 282.246 52.5621H280.759Z" fill="#727171"/>
<path d="M282.246 29.3997C282.676 29.3997 283.025 29.785 283.025 30.2576V51.3886C283.025 51.862 282.676 52.2466 282.246 52.2466H280.759C280.33 52.2466 279.981 51.8613 279.981 51.3886V30.2576C279.981 29.7843 280.33 29.3997 280.759 29.3997H282.246ZM282.246 28.7686H280.759C280.013 28.7686 279.408 29.4356 279.408 30.2576V51.3886C279.408 52.2113 280.013 52.8777 280.759 52.8777H282.246C282.993 52.8777 283.598 52.2106 283.598 51.3886V30.2576C283.597 29.4349 282.993 28.7686 282.246 28.7686Z" fill="#E7E7E7"/>
<path d="M288.221 61.6689H286.99C286.173 61.6689 285.511 60.9385 285.511 60.0383V58.6817C285.511 57.6667 286.257 56.844 287.178 56.844H288.221C289.038 56.844 289.7 57.5744 289.7 58.4746V60.0376C289.7 60.9385 289.038 61.6689 288.221 61.6689Z" fill="#C9CACA"/>
<path d="M298.291 80.9707H303.243C304.375 80.9707 305.293 81.9821 305.293 83.2303V132.963C305.293 134.211 306.21 135.223 307.343 135.223H309.125C310.257 135.223 311.174 134.211 311.174 132.963V53.8954" stroke="#989DA4" stroke-width="2.8498" stroke-miterlimit="10"/>
<path d="M303.904 29.9821C303.047 30.3146 302.627 31.319 302.881 32.1995C303.251 33.4751 303.806 35.5706 304.343 37.4231C304.744 38.8079 305.402 40.087 306.267 41.1844L306.644 41.6634C307.459 42.4544 307.977 43.549 308.103 44.7379C308.363 47.1786 308.516 50.9653 308.141 51.6182C307.573 52.6064 308.217 53.8968 309.279 53.8968H312.423C313.167 53.8968 313.769 53.2326 313.769 52.4127V50.1686V46.365C313.769 42.6924 313.269 39.041 312.286 35.5318L310.592 29.5123C310.215 28.622 309.715 28.2656 309.214 28.1233C308.726 27.9845 308.209 28.0465 307.742 28.2564L303.904 29.9821Z" fill="#989DA4"/>
<path d="M155.688 10.254C127.309 10.254 103.485 24.4363 96.6736 43.6384H81.5699C74.0467 43.6384 68 49.6628 68 57.1583V66.1604C68 73.6558 74.0467 79.7135 81.5699 79.7135H88.805C88.7346 79.0081 88.7047 78.2783 88.7047 77.5543C88.7047 65.7922 98.271 56.2614 110.077 56.2614C121.882 56.2614 131.448 65.7922 131.448 77.5543C131.448 78.2783 131.42 79.0081 131.348 79.7135H177.459C177.389 79.0081 177.359 78.2783 177.359 77.5543C177.359 65.7922 186.925 56.2614 198.731 56.2614C210.536 56.2614 220.103 65.7922 220.103 77.5543C220.103 78.2783 220.073 79.0081 220.002 79.7135H229.838C237.361 79.7135 243.408 73.6558 243.408 66.1604V57.1583C243.409 49.6628 237.362 43.6384 229.839 43.6384H214.735C207.916 24.4363 184.067 10.254 155.688 10.254Z" fill="#BBBFC3"/>
<path fill-rule="evenodd" clip-rule="evenodd" d="M125.574 77.5486C125.574 86.0787 118.634 92.9937 110.072 92.9937C101.51 92.9937 94.5693 86.0787 94.5693 77.5486C94.5693 69.0184 101.51 62.1034 110.072 62.1034C118.634 62.1034 125.574 69.0184 125.574 77.5486Z" fill="#81858B"/>
<path fill-rule="evenodd" clip-rule="evenodd" d="M214.22 77.5486C214.22 86.0787 207.279 92.9937 198.717 92.9937C190.156 92.9937 183.215 86.0787 183.215 77.5486C183.215 69.0184 190.156 62.1034 198.717 62.1034C207.279 62.1034 214.22 69.0184 214.22 77.5486Z" fill="#81858B"/>
<path opacity="0.413" d="M155.688 10.2426C127.309 10.2426 103.485 24.4249 96.6736 43.627H81.5699C74.0467 43.627 68 49.6515 68 57.1469V66.1823C68 73.6777 74.0467 79.7021 81.5699 79.7021H88.805C88.7346 78.9967 88.7047 78.267 88.7047 77.543C88.7047 65.7809 98.2709 56.25 110.077 56.25C121.882 56.25 131.448 65.7809 131.448 77.543C131.448 78.267 131.42 78.9967 131.348 79.7021H137.616L171.291 11.7042C166.311 10.7426 161.081 10.2426 155.688 10.2426Z" fill="#AAAEB3"/>
<path opacity="0.466" d="M155.687 10.2426C137.517 10.2426 121.209 16.0672 110.043 25.2905L170.658 79.7021H177.459C177.389 78.9966 177.359 78.267 177.359 77.543C177.359 65.7808 186.925 56.25 198.731 56.25C210.536 56.25 220.103 65.7808 220.103 77.543C220.103 78.267 220.074 78.9967 220.002 79.7021H229.838C237.361 79.7021 243.408 73.6777 243.408 66.1823V57.1469C243.408 49.6515 237.361 43.627 229.838 43.627H214.734C207.915 24.4249 184.066 10.2426 155.687 10.2426Z" fill="#B9BDC1"/>
<path d="M149.286 21.0717C131.567 22.8213 116.931 31.7221 110.977 43.6602H149.286V21.0717ZM162.089 21.0717V43.6602H200.398C194.434 31.7148 179.822 22.8136 162.089 21.0717Z" fill="#989DA4"/>
<path fill-rule="evenodd" clip-rule="evenodd" d="M226.072 43.627C225.828 44.496 225.672 45.402 225.672 46.3509C225.672 51.9203 230.184 56.416 235.774 56.416H243.376C242.981 49.2788 237.105 43.627 229.84 43.627H226.072Z" fill="#989DA4"/>
<path fill-rule="evenodd" clip-rule="evenodd" d="M85.3043 43.627C85.5488 44.496 85.7044 45.402 85.7044 46.3509C85.7044 51.9204 81.192 56.4161 75.6018 56.4161H68C68.3952 49.2789 74.271 43.627 81.5367 43.627H85.3043Z" fill="#AAAEB2"/>
<path opacity="0.413" fill-rule="evenodd" clip-rule="evenodd" d="M122.146 67.8546L106.843 92.6355C107.884 92.8554 108.97 93.0009 110.077 93.0009C118.639 93.0009 125.581 86.0845 125.581 77.5543C125.581 73.8816 124.295 70.5054 122.146 67.8546Z" fill="#4C4C50"/>
<path opacity="0.466" fill-rule="evenodd" clip-rule="evenodd" d="M195.267 92.5181L191.899 63.6163C190.944 64.0857 190.002 64.6403 189.132 65.323C182.406 70.6011 181.248 80.314 186.545 87.0152C188.826 89.9004 191.933 91.7602 195.267 92.5181Z" fill="#4C4C50"/>
</svg>
